<svg width="188" height="40" viewBox="0 0 188 40" fill="none" xmlns="http://www.w3.org/2000/svg">
<path d="M18.5278 0H9.22717L13.645 19.825L18.0628 39.65H27.3634L18.5278 0Z" fill="url(#paint0_linear_221_68)"/>
<path d="M8.83559 0H18.1362L13.7184 19.825L9.30062 39.65H0L8.83559 0Z" fill="url(#paint1_linear_221_68)"/>
<path d="M57.8895 26.2288L59.0255 32.2197H64.0002L58.8688 6H52.719L47 32.2197H51.9747L53.1498 26.2288H57.8895ZM53.6591 22.2609L54.6383 16.7757C54.9125 15.2586 55.3042 12.5744 55.5784 10.8238H55.6959C55.931 12.5355 56.2835 15.1808 56.5577 16.7757L57.4195 22.2609H53.6591Z" fill="white"/>
<path d="M80.4523 13.1968H75.3209V25.3341C75.3209 25.9954 75.2034 26.5789 75.0075 26.968C74.7725 27.5904 74.2241 28.2517 73.3232 28.2517C71.913 28.2517 71.4038 26.6568 71.4038 24.167V13.1968H66.2724V24.7117C66.2724 29.8467 67.7217 32.5309 71.3646 32.5309C73.3623 32.5309 74.9292 31.4805 75.8301 30.1968H75.9084L76.1826 32.2197H80.609C80.5306 30.4302 80.4523 28.4462 80.4523 26.4233V13.1968Z" fill="white"/>
<path d="M98.1242 19.2265C98.1242 16.9314 98.2025 14.9474 98.32 13.1968H93.8154L93.5412 15.1419H93.4628C92.7186 13.6636 91.4651 12.8467 89.9374 12.8467C86.4121 12.8467 83.5134 16.5423 83.5134 22.8833C83.5134 27.4348 85.1978 32.103 89.4674 32.103C90.9167 32.103 92.2485 31.4027 92.9144 30.1968H92.9928V31.3638C92.9928 34.2815 91.9743 35.9931 89.3891 35.9931C87.9006 35.9931 86.6863 35.643 85.7462 35.1762L84.8061 39.1053C86.177 39.6888 87.783 40 89.5849 40C92.366 40 94.4029 39.222 95.8131 37.8993C97.3407 36.4211 98.1242 34.1648 98.1242 30.0801V19.2265ZM92.9928 25.2174C92.9928 25.7231 92.9536 26.3066 92.7577 26.7346C92.366 27.746 91.7393 28.0961 91.0734 28.0961C89.5849 28.0961 88.5665 26.3066 88.5665 22.7666C88.5665 19.6545 89.3107 17.1648 91.1517 17.1648C92.0135 17.1648 92.5619 17.9039 92.7969 18.7208C92.9144 19.1098 92.9928 19.6156 92.9928 20.1213V25.2174Z" fill="white"/>
<path d="M101.621 32.2197H106.752V20.238C106.752 19.6934 106.831 19.1487 106.948 18.7986C107.301 17.6316 108.084 17.087 108.867 17.087C110.473 17.087 110.591 18.8764 110.591 20.2769V32.2197H115.722V20.1602C115.722 19.6156 115.761 19.1098 115.879 18.7986C116.192 17.7094 116.897 17.087 117.798 17.087C119.326 17.087 119.561 18.8375 119.561 20.9771V32.2197H124.692V20.1213C124.692 15.5698 123.165 12.8467 119.718 12.8467C118.738 12.8467 117.838 13.0801 117.054 13.5469C116.31 14.0137 115.566 14.714 115.096 15.4531H115.017C114.351 13.8192 112.98 12.8467 110.826 12.8467C108.867 12.8467 107.261 13.9748 106.282 15.3753H106.204L105.93 13.1968H101.464C101.542 15.0252 101.621 16.8535 101.621 18.9153V32.2197Z" fill="white"/>
<path d="M141.641 24.5172C141.72 23.9725 141.798 23.2334 141.798 21.8719C141.798 16.0755 139.408 12.8467 135.296 12.8467C130.987 12.8467 127.618 16.659 127.618 23.0778C127.618 29.0297 130.478 32.4531 135.726 32.4531C137.646 32.4531 139.644 32.103 140.936 31.5973L140.27 27.9405C139.33 28.2517 138.077 28.5629 136.627 28.5629C134.395 28.5629 132.632 27.4737 132.593 24.5172H141.641ZM132.593 20.9382C132.632 19.032 133.337 16.5812 134.982 16.5812C136.51 16.5812 137.137 18.4874 137.137 20.9382H132.593Z" fill="white"/>
<path d="M144.694 32.2197H149.826V20.627C149.826 19.8879 149.943 19.2654 150.1 18.8764C150.453 17.7483 151.158 17.1648 152.019 17.1648C153.508 17.1648 153.9 18.7208 153.9 20.3158V32.2197H159.031V20.0046C159.031 15.7643 157.582 12.8856 153.939 12.8856C151.941 12.8856 150.296 13.897 149.317 15.3753H149.238L148.964 13.1968H144.538C144.616 15.0252 144.694 16.8535 144.694 18.9153V32.2197Z" fill="white"/>
<path d="M163.536 9.85126V13.1968H161.264V16.8146H163.536V25.8009C163.536 28.7963 164.123 30.2357 165.142 31.2471C166.082 32.103 167.375 32.4531 168.863 32.4531C170.195 32.4531 171.292 32.2975 171.997 32.103L171.958 28.135C171.488 28.2128 171.096 28.2517 170.587 28.2517C169.607 28.2517 168.667 27.7071 168.667 25.4897V16.8146H172.428V13.1968H168.667V8.25629L163.536 9.85126Z" fill="white"/>
<path d="M187.726 20.8215C187.726 16.9314 186.786 12.8856 180.949 12.8856C178.246 12.8856 176.053 13.7414 174.956 14.3249L175.896 17.7872C177.071 17.087 178.286 16.659 179.813 16.659C181.654 16.659 182.516 17.7483 182.516 19.2654V19.6934C178.168 19.7323 173.742 21.7551 173.742 26.7735C173.742 30.119 175.896 32.5309 178.795 32.5309C180.479 32.5309 182.007 31.7918 183.025 30.3524H183.143L183.417 32.2197H188C187.804 30.9359 187.726 29.3799 187.726 27.8627V20.8215ZM182.673 26.2677C182.673 26.6178 182.634 26.8902 182.555 27.1625C182.203 28.2906 181.302 28.7963 180.44 28.7963C179.657 28.7963 178.599 28.0961 178.599 26.2288C178.599 23.5835 180.988 23 182.673 22.9611V26.2677Z" fill="white"/>
<defs>
<linearGradient id="paint0_linear_221_68" x1="18.2953" y1="0" x2="18.2953" y2="39.65" gradientUnits="userSpaceOnUse">
<stop stop-color="#00053C"/>
<stop offset="1" stop-color="#302CF5"/>
</linearGradient>
<linearGradient id="paint1_linear_221_68" x1="9.0681" y1="0" x2="9.0681" y2="39.65" gradientUnits="userSpaceOnUse">
<stop stop-color="#09F0E2"/>
<stop offset="1" stop-color="#003E73"/>
</linearGradient>
</defs>
</svg>
